<?xml version="1.0" encoding="UTF-8"?>
<svg width="6px" height="10px" viewBox="0 0 6 10" version="1.1" xmlns="http://www.w3.org/2000/svg" xmlns:xlink="http://www.w3.org/1999/xlink">
    <title>编组</title>
    <g id="页面-2" stroke="none" stroke-width="1" fill="none" fill-rule="evenodd">
        <g id="画板" transform="translate(-215, -1001)" fill="#18181B" fill-rule="nonzero">
            <g id="编组-2" transform="translate(205, 989)">
                <g id="编组" transform="translate(13, 17) rotate(90) translate(-13, -17)translate(8, 14)">
                    <path d="M-2.84217094e-14,5.33729089 C-2.84217094e-14,5.1733077 0.0587526451,5.0093245 0.174980704,4.88497058 L4.56737954,0.186852079 C4.80112582,-0.0622840263 5.17916045,-0.0622840263 5.41290674,0.186852079 L9.80402834,4.88497058 C9.96742717,5.04398764 10.035776,5.28630899 9.98187123,5.51548824 C9.92796648,5.74466749 9.76055624,5.92351174 9.54627151,5.98083914 C9.33198677,6.03816654 9.10560325,5.96467357 8.95722391,5.7896112 L4.98886591,1.54654606 L1.02306236,5.7896112 C0.851937804,5.97200855 0.59516488,6.02659368 0.371866379,5.92804331 C0.148567877,5.82949294 0.00244096461,5.59709234 0.00127723141,5.33865742 L-2.84217094e-14,5.33729089 Z" id="路径"></path>
                </g>
            </g>
        </g>
    </g>
</svg>