<?xml version="1.0" encoding="UTF-8"?>
<svg width="383px" height="383px" viewBox="0 0 383 383" version="1.1" xmlns="http://www.w3.org/2000/svg" xmlns:xlink="http://www.w3.org/1999/xlink">
    <title>画板</title>
    <g id="画板" stroke="none" stroke-width="1" fill="none" fill-rule="evenodd">
        <path d="M189.292289,38 C200.265498,38 209.161692,46.8867678 209.161692,57.8491379 L209.161692,58.4698425 C209.161692,65.2857718 205.611692,71.2733305 200.258433,74.6880879 C200.306119,75.0967155 200.330846,75.5124006 200.330846,75.933908 L200.330846,105.045977 L317.781095,105.045977 C323.633296,105.045977 328.378109,109.785598 328.378109,115.632184 C328.378109,121.47877 323.633296,126.218391 317.781095,126.218391 L314.286729,126.218391 L357.454552,226.964675 C357.924353,228.060348 358.194577,229.190425 358.281119,230.316092 L360.84648,230.316092 C365.349328,230.316092 369,233.96304 369,238.461296 C369,264.657747 347.742388,285.893678 321.519192,285.893678 L283.135037,285.893678 C256.911841,285.893678 235.654229,264.657747 235.654229,238.461296 C235.654229,233.96304 239.3049,230.316092 243.807749,230.316092 L244.53541,230.316092 C244.674938,229.712678 244.8701,229.112793 245.122662,228.523494 L288.958097,126.218391 L200.330846,126.218391 L200.330846,296.479885 L205.161318,296.479885 C220.751294,296.479885 234.130908,305.93425 239.868308,319.416667 L272.302239,319.416667 C279.37398,319.416667 285.106965,325.143805 285.106965,332.208333 C285.106965,339.272862 279.37398,345 272.302239,345 L106.282338,345 C99.2105087,345 93.4776119,339.272862 93.4776119,332.208333 C93.4776119,325.143805 99.2105087,319.416667 106.282338,319.416667 L140.222811,319.416667 C145.960211,305.93425 159.339826,296.479885 174.929801,296.479885 L179.136816,296.479885 L179.136816,126.218391 L93.5158495,126.218391 L136.683408,226.964675 C137.153209,228.060348 137.423433,229.190425 137.509975,230.316092 L139.192251,230.316092 C143.6951,230.316092 147.345771,233.96304 147.345771,238.461296 C147.345771,264.657747 126.088159,285.893678 99.8648744,285.893678 L61.4808968,285.893678 C35.2579652,285.893678 14,264.657747 14,238.461296 C14,233.96304 17.6503979,230.316092 22.1533963,230.316092 L23.7645311,230.316092 C23.9041468,229.712678 24.0990435,229.112793 24.3515174,228.523494 L68.1873943,126.218391 L60.8034826,126.218391 C54.9509279,126.218391 50.2064677,121.47877 50.2064677,115.632184 C50.2064677,109.785598 54.9509279,105.045977 60.8034826,105.045977 L179.136816,105.045977 L179.136816,75.933908 C179.136816,75.6845147 179.145647,75.4371503 179.162425,75.1920796 C173.345547,71.8841546 169.422886,65.6346756 169.422886,58.4698425 L169.422886,57.8491379 C169.422886,46.8867678 178.31908,38 189.292289,38 Z M115.066381,230.316092 L80.8516219,150.465216 L46.6372164,230.316092 L115.066381,230.316092 Z M267.408184,230.316092 L335.837525,230.316092 L301.622413,150.465216 L267.408184,230.316092 Z" id="形状" fill="#FFFFFF"></path>
    </g>
</svg>