<?xml version="1.0" encoding="UTF-8"?>
<svg width="128px" height="128px" viewBox="0 0 128 128" version="1.1" xmlns="http://www.w3.org/2000/svg" xmlns:xlink="http://www.w3.org/1999/xlink">
    <title>logo-gradient</title>
    <defs>
        <linearGradient x1="77.0689666%" y1="79.7233098%" x2="5.5386927%" y2="3.22953836%" id="linearGradient-1">
            <stop stop-color="#AB2EFF" offset="0%"></stop>
            <stop stop-color="#4206FF" offset="100%"></stop>
        </linearGradient>
    </defs>
    <g id="logo-gradient" stroke="none" stroke-width="1" fill="none" fill-rule="evenodd">
        <rect id="矩形" fill="url(#linearGradient-1)" x="0" y="0" width="128" height="128" rx="35"></rect>
        <path d="M63.4029851,22 C66.3703881,22 68.7761194,24.4026115 68.7761194,27.3663793 L68.7761194,27.534192 C68.7761194,29.3769351 67.8161194,30.9957213 66.3684776,31.9189293 C66.3813731,32.0294052 66.3880597,32.1417891 66.3880597,32.2557471 L66.3880597,40.1264368 L98.1492537,40.1264368 C99.7318209,40.1264368 101.014925,41.4078328 101.014925,42.9885057 C101.014925,44.5691787 99.7318209,45.8505747 98.1492537,45.8505747 L97.2042985,45.8505747 L108.877851,73.0881695 C109.004896,73.3843937 109.07797,73.6899195 109.101373,73.9942529 L109.795104,73.9942529 C111.012776,73.9942529 112,74.9802356 112,76.1963764 C112,83.2788046 106.251463,89.0201149 99.1601194,89.0201149 L88.7801791,89.0201149 C81.6888358,89.0201149 75.9402985,83.2788046 75.9402985,76.1963764 C75.9402985,74.9802356 76.9275224,73.9942529 78.145194,73.9942529 L78.3419701,73.9942529 C78.3797015,73.8311149 78.4324776,73.668931 78.5007761,73.5096092 L90.3548657,45.8505747 L66.3880597,45.8505747 L66.3880597,91.8821839 L67.6943284,91.8821839 C71.910209,91.8821839 75.5283582,94.43825 77.0798806,98.0833333 L85.8507463,98.0833333 C87.7631045,98.0833333 89.3134328,99.6317126 89.3134328,101.541667 C89.3134328,103.451621 87.7631045,105 85.8507463,105 L40.9552239,105 C39.0428418,105 37.4925373,103.451621 37.4925373,101.541667 C37.4925373,99.6317126 39.0428418,98.0833333 40.9552239,98.0833333 L50.1334925,98.0833333 C51.6850149,94.43825 55.3031642,91.8821839 59.5190448,91.8821839 L60.6567164,91.8821839 L60.6567164,45.8505747 L37.5028776,45.8505747 L49.1763582,73.0881695 C49.303403,73.3843937 49.3764776,73.6899195 49.3998806,73.9942529 L49.854806,73.9942529 C51.0724776,73.9942529 52.0597015,74.9802356 52.0597015,76.1963764 C52.0597015,83.2788046 46.3111642,89.0201149 39.219797,89.0201149 L28.8399045,89.0201149 C21.7486328,89.0201149 16,83.2788046 16,76.1963764 C16,74.9802356 16.9871499,73.9942529 18.2048621,73.9942529 L18.6405493,73.9942529 C18.6783045,73.8311149 18.731009,73.668931 18.7992836,73.5096092 L30.6534925,45.8505747 L28.6567164,45.8505747 C27.0740537,45.8505747 25.7910448,44.5691787 25.7910448,42.9885057 C25.7910448,41.4078328 27.0740537,40.1264368 28.6567164,40.1264368 L60.6567164,40.1264368 L60.6567164,32.2557471 C60.6567164,32.1883216 60.6591045,32.1214445 60.6636418,32.0551876 C59.0906269,31.1608626 58.0298507,29.4712641 58.0298507,27.534192 L58.0298507,27.3663793 C58.0298507,24.4026115 60.4355821,22 63.4029851,22 Z M44,73 L34.499951,52 L25,73 L44,73 Z M83,73 L102,73 L92.4998774,52 L83,73 Z" id="形状" fill="#FFFFFF" fill-rule="nonzero"></path>
    </g>
</svg>
