<?xml version="1.0" encoding="UTF-8"?>
<svg width="402px" height="348px" viewBox="0 0 402 348" version="1.1" xmlns="http://www.w3.org/2000/svg" xmlns:xlink="http://www.w3.org/1999/xlink">
    <title>logo-white</title>
    <g id="页面-1" stroke="none" stroke-width="1" fill="none" fill-rule="evenodd">
        <g id="logo-white" fill="#18181B">
            <path d="M198.5,0 C210.926,0 221,10.0736 221,22.5 L221,23.2036 C221,30.9298 216.98,37.717 210.918,41.5878 C210.972,42.051 211,42.5222 211,43 L211,76 L344,76 C350.627,76 356,81.3726 356,88 C356,94.6274 350.627,100 344,100 L340.043,100 L388.926,214.201 C389.458,215.443 389.764,216.724 389.862,218 L392.767,218 C397.866,218 402,222.134 402,227.233 C402,256.928 377.928,281 348.233,281 L304.767,281 C275.072,281 251,256.928 251,227.233 C251,222.134 255.134,218 260.233,218 L261.057,218 C261.215,217.316 261.436,216.636 261.722,215.968 L311.361,100 L211,100 L211,293 L216.47,293 C234.124,293 249.275,303.717 255.772,319 L292.5,319 C300.508,319 307,325.492 307,333.5 C307,341.508 300.508,348 292.5,348 L104.5,348 C96.4919,348 90,341.508 90,333.5 C90,325.492 96.4919,319 104.5,319 L142.934,319 C149.431,303.717 164.582,293 182.236,293 L187,293 L187,100 L90.0433,100 L138.926,214.201 C139.458,215.443 139.764,216.724 139.862,218 L141.767,218 C146.866,218 151,222.134 151,227.233 C151,256.928 126.928,281 97.2329,281 L53.7671,281 C24.0724,281 0,256.928 0,227.233 C0,222.134 4.13369,218 9.23286,218 L11.0573,218 C11.2154,217.316 11.4361,216.636 11.722,215.968 L61.3615,100 L53,100 C46.3726,100 41,94.6274 41,88 C41,81.3726 46.3726,76 53,76 L187,76 L187,43 C187,42.7173 187.01,42.4369 187.029,42.1591 C180.442,38.4094 176,31.3253 176,23.2036 L176,22.5 C176,10.0736 186.074,0 198.5,0 Z M114.447,218 L75.7024,127.485 L36.9582,218 L114.447,218 Z M286.958,218 L364.447,218 L325.702,127.485 L286.958,218 Z" id="形状"></path>
        </g>
    </g>
</svg>