<?xml version="1.0" encoding="UTF-8"?>
<svg width="759px" height="800px" viewBox="0 0 759 800" version="1.1" xmlns="http://www.w3.org/2000/svg" xmlns:xlink="http://www.w3.org/1999/xlink">
    <title>画框</title>
    <defs>
        <linearGradient x1="0%" y1="49.9920775%" x2="100.016728%" y2="49.9920775%" id="linearGradient-1">
            <stop stop-color="#1EEDC4" offset="0%"></stop>
            <stop stop-color="#1E9EED" offset="100%"></stop>
        </linearGradient>
        <linearGradient x1="29.7899004%" y1="12.4419847%" x2="78.7395792%" y2="80.6023281%" id="linearGradient-2">
            <stop stop-color="#1E9EED" offset="0%"></stop>
            <stop stop-color="#090380" offset="100%"></stop>
        </linearGradient>
        <linearGradient x1="27.481954%" y1="35.2630739%" x2="107.455108%" y2="127.162708%" id="linearGradient-3">
            <stop stop-color="#1E9EED" offset="0%"></stop>
            <stop stop-color="#090380" offset="100%"></stop>
        </linearGradient>
        <linearGradient x1="62.8706658%" y1="36.7502466%" x2="33.1104579%" y2="86.2014504%" id="linearGradient-4">
            <stop stop-color="#1EEDC4" offset="0%"></stop>
            <stop stop-color="#1E9EED" offset="100%"></stop>
        </linearGradient>
    </defs>
    <g id="页面-1" stroke="none" stroke-width="1" fill="none" fill-rule="evenodd" opacity="0.8">
        <g id="logo" transform="translate(-21, 0)">
            <g id="画框" transform="translate(21.4254, 0.4255)">
                <g transform="translate(-0.4254, -0.4255)" fill-rule="nonzero" id="编组">
                    <g>
                        <path d="M379.539894,800 C366.380994,800 353.351125,797.40689 341.194107,792.369481 C329.037088,787.332072 317.990379,779.947997 308.686117,770.639481 C289.89435,751.841187 279.336654,726.344799 279.336654,699.75974 C279.336654,595.759658 322.441374,495.599773 400.652033,417.039638 C474.864929,342.48034 568.990743,299.759509 658.797845,299.759509 C671.956744,299.759509 684.986613,302.352564 697.143632,307.389973 C709.300651,312.427382 720.34736,319.811457 729.651621,329.119973 C738.956967,338.427402 746.337704,349.478008 751.37313,361.640078 C756.408556,373.801063 759,386.835807 759,399.999714 C759,413.163622 756.408556,426.198366 751.37313,438.360436 C746.337704,450.521421 738.956967,461.572026 729.651621,470.880542 C720.34736,480.187971 709.300651,487.572047 697.143632,492.609456 C684.986613,497.646865 671.956744,500.23992 658.797845,500.23992 C588.103459,500.23992 479.82337,589.59993 479.82337,699.75974 C479.82337,712.93016 477.228673,725.971416 472.187826,738.137828 C467.146978,750.305325 459.759735,761.359187 450.445716,770.667702 C441.13278,779.977303 430.077396,787.359207 417.910619,792.392275 C405.744926,797.425342 392.705299,800.009714 379.539894,800 Z" id="路径" fill="url(#linearGradient-1)"></path>
                        <path d="M379.539894,800 C366.380994,800 353.351125,797.40689 341.194107,792.369481 C329.037088,787.332072 317.990379,779.947997 308.686117,770.639481 C289.89435,751.841187 279.336654,726.344799 279.336654,699.75974 C279.336654,589.59993 170.897176,500.23992 100.203115,500.23992 C73.6275814,500.23992 48.1405631,489.678836 29.3487963,470.880542 C10.5570294,452.081161 1.43252162e-14,426.584773 1.43252162e-14,399.999714 C1.43252162e-14,373.414655 10.5570294,347.918267 29.3487963,329.119973 C48.1405631,310.320592 73.6275814,299.759509 100.203115,299.759509 C190.090128,299.759509 284.135706,342.48034 358.348601,417.039638 C436.639497,495.999205 479.82337,595.999535 479.82337,699.75974 C479.82337,712.93016 477.228673,725.971416 472.187826,738.137828 C467.146978,750.305325 459.759735,761.359187 450.445716,770.667702 C441.13278,779.977303 430.077396,787.359207 417.910619,792.392275 C405.744926,797.425342 392.705299,800.009714 379.539894,800 Z" id="路径" fill="url(#linearGradient-2)"></path>
                        <path d="M658.797845,500.23992 C568.990743,500.23992 474.864929,457.520174 400.652033,382.959791 C322.441374,304.399656 279.336654,203.999894 279.336654,100.239906 C279.336654,73.6546302 289.89435,48.1582421 308.686117,29.3596217 C327.477884,10.5610012 352.965119,-3.61515672e-15 379.539894,-3.61515672e-15 C406.115752,-3.61515672e-15 431.602987,10.5610012 450.394754,29.3596217 C469.186521,48.1582421 479.743133,73.6546302 479.743133,100.239906 C479.82337,210.399499 588.103459,299.759509 658.797845,299.759509 C671.956744,299.759509 684.986613,302.352564 697.143632,307.389973 C709.300651,312.427382 720.34736,319.811457 729.651621,329.118887 C738.956967,338.427402 746.337704,349.478008 751.37313,361.640078 C756.408556,373.801063 759,386.835807 759,399.999714 C759,413.163622 756.408556,426.198366 751.37313,438.360436 C746.337704,450.521421 738.956967,461.572026 729.651621,470.880542 C720.34736,480.187971 709.300651,487.572047 697.143632,492.609456 C684.986613,497.646865 671.956744,500.23992 658.797845,500.23992 Z" id="路径" fill="url(#linearGradient-3)"></path>
                        <path d="M100.203115,500.23992 C73.6275814,500.23992 48.1405631,489.678836 29.3487963,470.880542 C10.5570294,452.081161 1.43252162e-14,426.584773 1.43252162e-14,399.999714 C1.43252162e-14,373.414655 10.5570294,347.918267 29.3487963,329.118887 C48.1405631,310.320592 73.6275814,299.759509 100.203115,299.759509 C170.897176,299.759509 279.336654,210.399499 279.336654,100.239906 C279.336654,73.6546302 289.89435,48.1582421 308.686117,29.3596217 C327.477884,10.5610012 352.965119,-3.61515672e-15 379.539894,-3.61515672e-15 C406.115752,-3.61515672e-15 431.602987,10.5610012 450.394754,29.3596217 C469.186521,48.1582421 479.743133,73.6546302 479.743133,100.239906 C479.743133,204.239771 436.639497,304.399656 358.347517,382.959791 C284.214859,457.520174 190.090128,500.23992 100.203115,500.23992 Z" id="路径" fill="url(#linearGradient-4)"></path>
                    </g>
                </g>
            </g>
        </g>
    </g>
</svg>