<?xml version="1.0" standalone="no"?><!DOCTYPE svg PUBLIC "-//W3C//DTD SVG 1.1//EN" "http://www.w3.org/Graphics/SVG/1.1/DTD/svg11.dtd"><svg t="1764334678836" class="icon" viewBox="0 0 1024 1024" version="1.1" xmlns="http://www.w3.org/2000/svg" p-id="13189" xmlns:xlink="http://www.w3.org/1999/xlink" width="1024" height="1024"><path d="M414.22 958.81H285.86c-105.87 0-192-86.13-192-192V256.82c0-105.87 86.13-192 192-192h446.8c105.87 0 192 86.13 192 192v191.39c0 17.67-14.33 32-32 32s-32-14.33-32-32V256.82c0-70.58-57.42-128-128-128h-446.8c-70.58 0-128 57.42-128 128v509.99c0 70.58 57.42 128 128 128h128.36c17.67 0 32 14.33 32 32s-14.33 32-32 32z" fill="#18181b" p-id="13190"></path><path d="M764.62 350.91H251.58c-17.67 0-32-14.33-32-32s14.33-32 32-32h513.05c17.67 0 32 14.33 32 32s-14.33 32-32.01 32zM251.58 544.04c-17.67 0-32-14.32-32-31.99 0-17.67 14.32-32 31.99-32.01l355.68-0.1h0.01c17.67 0 32 14.32 32 31.99 0 17.67-14.32 32-31.99 32.01l-355.69 0.1zM445.34 735.07H251.58c-17.67 0-32-14.33-32-32s14.33-32 32-32h193.77c17.67 0 32 14.33 32 32s-14.33 32-32.01 32z" fill="#18181b" p-id="13191"></path><path d="M610.47 958.25c-16.77 0-33.05-6.52-45.29-18.53a64.638 64.638 0 0 1-18.3-58.14l10.57-56.46c2.41-12.89 8.59-24.6 17.86-33.87l195.91-195.91c25.24-25.24 66.32-25.24 91.56 0l44.79 44.79c25.24 25.24 25.24 66.32 0 91.56L711.41 927.85a64.584 64.584 0 0 1-32.63 17.61l-55.11 11.43c-4.4 0.91-8.82 1.36-13.2 1.36zM817 640.38c-0.31 0-0.43 0.12-0.53 0.22L620.56 836.51c-0.11 0.11-0.18 0.24-0.21 0.39l-10.57 56.46c-0.05 0.28-0.07 0.39 0.21 0.67s0.4 0.25 0.67 0.2l55.11-11.43c0.14-0.03 0.27-0.1 0.38-0.2l196.16-196.16c0.29-0.29 0.29-0.76 0-1.05l-44.79-44.79c-0.09-0.09-0.21-0.22-0.52-0.22z" fill="#18181b" p-id="13192"></path></svg>