<?xml version="1.0" standalone="no"?><!DOCTYPE svg PUBLIC "-//W3C//DTD SVG 1.1//EN" "http://www.w3.org/Graphics/SVG/1.1/DTD/svg11.dtd"><svg t="1764334580065" class="icon" viewBox="0 0 1024 1024" version="1.1" xmlns="http://www.w3.org/2000/svg" p-id="11142" xmlns:xlink="http://www.w3.org/1999/xlink" width="1024" height="1024"><path d="M776.827586 70.62069a105.931034 105.931034 0 0 1 105.931035 105.931034v670.896552a105.931034 105.931034 0 0 1-105.931035 105.931034H247.172414a105.931034 105.931034 0 0 1-105.931035-105.931034V176.551724a105.931034 105.931034 0 0 1 105.931035-105.931034h529.655172zM335.448276 123.586207h-88.275862a52.965517 52.965517 0 0 0-52.965517 52.965517v670.896552a52.965517 52.965517 0 0 0 52.965517 52.965517h529.655172a52.965517 52.965517 0 0 0 52.965517-52.965517V176.551724a52.965517 52.965517 0 0 0-52.965517-52.965517h-88.275862v88.275862a70.62069 70.62069 0 0 1-70.62069 70.62069H406.068966a70.62069 70.62069 0 0 1-70.62069-70.62069V123.586207z m388.413793 617.931034v52.965518H423.724138v-52.965518h300.137931z m-370.758621 0v52.965518h-52.965517v-52.965518h52.965517z m370.758621-158.896551v52.965517H423.724138v-52.965517h300.137931z m-370.758621 0v52.965517h-52.965517v-52.965517h52.965517z m370.758621-158.896552v52.965517H423.724138v-52.965517h300.137931z m-370.758621 0v52.965517h-52.965517v-52.965517h52.965517zM635.586207 123.586207H388.413793v88.275862a17.655172 17.655172 0 0 0 15.589517 17.531586L406.068966 229.517241h211.862068a17.655172 17.655172 0 0 0 17.655173-17.655172V123.586207z" fill="#18181b" p-id="11143"></path></svg>