<?xml version="1.0" encoding="UTF-8"?>
<svg width="1024px" height="1024px" viewBox="0 0 1024 1024" version="1.1" xmlns="http://www.w3.org/2000/svg" xmlns:xlink="http://www.w3.org/1999/xlink">
    <title>lawyerLetter</title>
    <g id="lawyerLetter" stroke="none" fill="none" fill-rule="nonzero">
        <path d="M966.692308,1024 L634.307692,1024 C602.657528,1024 577,998.37242 577,966.759197 L577,875.173913 C577,843.560691 602.657528,817.93311 634.307692,817.93311 L671.932485,817.93311 L735.075246,708.693618 C701.415235,681.114062 688.714481,635.39572 703.333776,594.435253 C717.953072,553.474787 756.744593,526.091796 800.280769,526 C843.816945,525.908665 882.723575,553.12824 897.51544,594.026849 C912.307305,634.925457 899.799423,680.696818 866.255992,708.417717 L929.230269,817.93311 L966.692308,817.93311 C998.342472,817.93311 1024,843.560691 1024,875.173913 L1024,966.759197 C1024,998.37242 998.342472,1024 966.692308,1024 L966.692308,1024 Z M800.5,594 C781.446176,594 766,609.446176 766,628.5 C766,647.553824 781.446176,663 800.5,663 C819.553824,663 835,647.553824 835,628.5 C835,609.446176 819.553824,594 800.5,594 Z M800.630998,732 L751,818 L850,818 L800.630998,732 Z M955,909 C955,896.297451 944.752295,886 932.111111,886 L668.888889,886 C656.247705,886 646,896.297451 646,909 L646,932 C646,944.702549 656.247705,955 668.888889,955 L932.111111,955 C944.752295,955 955,944.702549 955,932 L955,909 Z M460.513514,644 C472.810573,643.929117 484.204035,650.488996 490.373158,661.192513 C496.542281,671.89603 496.542281,685.10397 490.373158,695.807487 C484.204035,706.511004 472.810573,713.070883 460.513514,713 L207.486486,713 C195.189427,713.070883 183.795965,706.511004 177.626842,695.807487 C171.457719,685.10397 171.457719,671.89603 177.626842,661.192513 C183.795965,650.488996 195.189427,643.929117 207.486486,644 L460.513514,644 L460.513514,644 Z M173,345.500575 C173,326.446753 188.371997,311 207.334317,311 L720.467385,311 C732.780892,310.929117 744.189594,317.488996 750.366969,328.192513 C756.544344,338.89603 756.544344,352.10397 750.366969,362.807487 C744.189594,373.511004 732.780892,380.070883 720.467385,380 L207.334317,380 C188.372445,380 173,364.553948 173,345.500575 Z M590.694916,547 L207.305084,547 C198.20681,547 189.481177,543.367733 183.047726,536.902257 C176.614275,530.436781 173,521.667714 173,512.52415 L173,512.47585 C173,493.435364 188.358909,478 207.305084,478 L590.694916,478 C609.641091,478 625,493.435364 625,512.47585 L625,512.52415 C625,521.667714 621.385725,530.436781 614.952274,536.902257 C608.518823,543.367733 599.79319,547 590.694916,547 L590.694916,547 Z M893.62963,477.637584 C874.647398,477.637584 859.259259,462.253006 859.259259,443.275168 L859.259259,91.6331096 C859.259259,78.9812174 849.0005,68.7248322 836.345679,68.7248322 L91.654321,68.7248322 C78.9995001,68.7248322 68.7407407,78.9812174 68.7407407,91.6331096 L68.7407407,932.36689 C68.7407407,945.018783 78.9995001,955.275168 91.654321,955.275168 L477.748148,955.275168 C496.73038,955.275168 512.118519,970.659746 512.118519,989.637584 C512.118519,1008.61542 496.73038,1024 477.748148,1024 L57.2839506,1024 C25.6468983,1024 0,998.359037 0,966.729306 L0,57.2706935 C0,25.6409629 25.6468983,0 57.2839506,0 L870.716049,0 C902.353102,0 928,25.6409629 928,57.2706935 L928,443.275168 C928,462.253006 912.611861,477.637584 893.62963,477.637584 Z" id="形状" fill="#18181B"></path>
    </g>
</svg>