<?xml version="1.0" encoding="UTF-8"?>
<svg width="1024px" height="1024px" viewBox="0 0 1024 1024" version="1.1" xmlns="http://www.w3.org/2000/svg" xmlns:xlink="http://www.w3.org/1999/xlink">
    <title>legalOpinion</title>
    <g id="legalOpinion" stroke="none" fill="none" fill-rule="evenodd" stroke-width="1">
        <g id="编组" transform="translate(76, 0)" fill="#18181B">
            <path d="M75.8181818,920.114286 L75.8181818,75.8857143 L758.181818,75.8857143 L758.181818,569.142857 L834,569.142857 L834,56.1838857 C834,25.2130286 808.989477,0 777.989318,0 L56.0106818,0 C25.0010455,0 0,25.2130286 0,56.1838857 L0,939.816114 C0,970.786971 25.0105227,996 56.0106818,996 L417,996 L417,920.114286 L75.8181818,920.114286 Z" id="路径" fill-rule="nonzero"></path>
            <path d="M152,189 L683,189 L683,264.893836 L152,264.893836 L152,189 Z M152,340.787673 L531.285714,340.787673 L531.285714,416.681509 L152,416.681509 L152,340.787673 Z M265.785714,672.823207 L198.908161,708 L211.680607,633.491226 L157.566018,580.726036 L232.342196,569.854244 L265.785714,502.062075 L299.229232,569.854244 L374.005411,580.726036 L319.890821,633.491226 L332.663268,708 L265.785714,672.823207 Z" id="形状" fill-rule="nonzero"></path>
            <path d="M654.022727,796.461538 C727.301,796.461538 786.704545,737.036077 786.704545,663.730769 C786.704545,590.425462 727.301,531 654.022727,531 C580.744455,531 521.340909,590.425462 521.340909,663.730769 C521.340909,737.036077 580.744455,796.461538 654.022727,796.461538 Z M654.022727,720.615385 C622.617808,720.615385 597.159091,695.147275 597.159091,663.730769 C597.159091,632.314264 622.617808,606.846154 654.022727,606.846154 C685.427646,606.846154 710.886364,632.314264 710.886364,663.730769 C710.886364,695.147275 685.427646,720.615385 654.022727,720.615385 Z M455,834.384615 L872,834.384615 L872,1024 L455,1024 L455,834.384615 Z M530.818182,910.230769 L530.818182,948.153846 L796.181818,948.153846 L796.181818,910.230769 L530.818182,910.230769 Z" id="形状" fill-rule="nonzero"></path>
            <polygon id="路径" fill-rule="nonzero" points="616 777 692 777 692 872 616 872"></polygon>
        </g>
    </g>
</svg>