<?xml version="1.0" standalone="no"?><!DOCTYPE svg PUBLIC "-//W3C//DTD SVG 1.1//EN" "http://www.w3.org/Graphics/SVG/1.1/DTD/svg11.dtd"><svg t="1763433277695" class="icon" viewBox="0 0 1024 1024" version="1.1" xmlns="http://www.w3.org/2000/svg" p-id="9457" xmlns:xlink="http://www.w3.org/1999/xlink" width="1024" height="1024"><path d="M734.324427 1024H289.147536a225.052624 225.052624 0 0 1-222.317657-227.462645V227.555796a225.052624 225.052624 0 0 1 222.317657-227.462645h297.055383a42.676325 42.676325 0 0 1 0 85.325571H289.147536a140.647735 140.647735 0 0 0-138.914687 142.218311v568.819085a140.647735 140.647735 0 0 0 138.914687 142.218311h445.176891a140.647735 140.647735 0 0 0 138.914686-142.218311V327.097782a41.701485 41.701485 0 1 1 83.40297 0v469.358336a225.052624 225.052624 0 0 1-222.317656 227.543882zM294.021735 696.887054h445.176891a42.676325 42.676325 0 0 1 0 85.32557H294.021735a42.676325 42.676325 0 0 1 0-85.32557z m0-227.462645h445.176891a42.676325 42.676325 0 0 1 0 85.32557H294.021735a42.703404 42.703404 0 0 1 0-85.406807z m249.125754-82.265657a41.159907 41.159907 0 0 1-59.031972 1.70597 43.326218 43.326218 0 0 1-1.624733-60.331759L884.612246 13.443042a41.159907 41.159907 0 0 1 59.031972-1.733048 43.326218 43.326218 0 0 1 1.624733 60.331758z" fill="#18181b" p-id="9458"></path></svg>